<?xml version="1.0" encoding="UTF-8"?>
<svg width="16pt" version="1.1" xmlns="http://www.w3.org/2000/svg" height="16pt" viewBox="0 0 16 16" xmlns:xlink="http://www.w3.org/1999/xlink">
 <defs/>
 <g id="Hintergrund">
  <g transform="translate(0, -1.81899e-12)">
   <path style="fill:#ff5d00; fill-rule:evenodd;" d="M0 0 L16 0 L16 16 L0 16 L0 0 Z"/>
   <path style="fill:none; stroke:none;" d="M0 0 L16 0 L16 16 L0 16 L0 0 Z"/>
  </g>
  <path style="fill:#ffffff; fill-rule:evenodd;stroke:none;" d="M7.47452 0 C4.57336 0 2.22309 2.35142 2.22309 5.25127 C2.22309 6.2431 2.49813 7.17044 2.97599 7.96174 L0.429947 10.5078 L0.438808 10.5166 C0.167056 10.7767 0.000164102 11.146 0.000164102 11.5633 C0 12.3695 0.642296 13 1.44771 12.9998 C1.85911 12.9996 2.22703 12.8351 2.48959 12.5673 L2.49599 12.5737 L5.12294 9.94658 C5.83055 10.3015 6.62874 10.5025 7.47452 10.5025 C10.3759 10.5025 12.7256 8.15144 12.7256 5.25127 C12.7256 2.35142 10.3757 0 7.47452 0 Z M7.50636 8.43763 C5.69302 8.43763 4.22415 6.96827 4.22415 5.1556 C4.22415 3.34325 5.69302 1.87355 7.50636 1.87355 C9.3197 1.87355 10.7882 3.34309 10.7882 5.1556 C10.7884 6.96827 9.3197 8.43763 7.50636 8.43763 Z" transform="translate(1.63719, 1.5)"/>
 </g>
</svg>
